<!-- <svg xmlns="http://www.w3.org/2000/svg" aria-hidden="true" style="position:absolute;width:0;height:0;overflow:hidden"><defs><path d="M24.729 11.907a.77.77 0 0 0-1.066-.093l-2.099 1.723-.965-2.337a.727.727 0 0 0-.146-.226 2.027 2.027 0 0 0-1.012-1.01 2.127 2.127 0 0 0-.629-.164c-.047-.024-.089-.055-.142-.071l-3.694-1.006a.773.773 0 0 0-.586.078.731.731 0 0 0-.46.42l-1.391 3.495a.736.736 0 0 0 .432.958.765.765 0 0 0 .98-.423l1.175-2.951 1.683.457c-.041.065-.085.126-.119.195l-2.157 4.568c-.031.067-.048.135-.07.205l-2.621 4.294-4.387 1.434a1.08 1.08 0 0 0-.235 1.531 1.139 1.139 0 0 0 1.566.231l4.489-1.511c.137-.098.237-.225.313-.363.057-.058.121-.105.164-.178l1.563-2.56 2.774 2.31-2.968 3.268a1.076 1.076 0 0 0 .095 1.543c.462.402 1.17.36 1.582-.093l3.704-4.078a1.09 1.09 0 0 0 .231-.422c.028-.082.028-.168.034-.253 0-.043.017-.082.013-.122a1.062 1.062 0 0 0-.385-.796l-2.553-2.127c.184-.171.34-.375.453-.614l1.654-3.499.53 1.379a.683.683 0 0 0 .153.343.73.73 0 0 0 .29.198c.011.005.024.007.038.01a.72.72 0 0 0 .47.023l.003-.001c.023-.005.047-.001.07-.011a.752.752 0 0 0 .298-.212l3.013-2.498c.32-.263.185-.729-.084-1.042zM23.03 8.063c0 1.139-.945 2.063-2.112 2.063s-2.111-.924-2.111-2.063S19.752 6 20.918 6c1.166 0 2.112.924 2.112 2.063z"/></symbol><symbol id="x" viewBox="0 0 32 32"><path stroke-linejoin="round" stroke-width="2.286" d="M22.666 9.333 9.333 22.666m0-13.333 13.333 13.333"/></symbol>
<symbol id="trash" viewBox="0 0 32 32"><path stroke-linejoin="round" stroke-width="2.6" d="M10.667 8V6.933c0-1.493 0-2.24.29-2.811.256-.502.664-.91 1.166-1.165.57-.291 1.316-.291 2.811-.291h2.133c1.494 0 2.24 0 2.811.291.502.256.91.664 1.166 1.165.29.57.29 1.317.29 2.811V8m-8.001 7.333V22m5.334-6.667V22M4 8h24m-2.667 0v14.933c0 2.24 0 3.36-.436 4.216a3.996 3.996 0 0 1-1.748 1.748c-.855.436-1.976.436-4.216.436h-5.867c-2.24 0-3.36 0-4.216-.436a4.001 4.001 0 0 1-1.748-1.748c-.436-.856-.436-1.976-.436-4.216V8"/></symbol>
<symbol id="start" viewBox="0 0 32 32"><path d="m13.618 2.932-2.08 6.402a2.462 2.462 0 0 1-2.341 1.701H2.465c-2.384 0-3.376 3.051-1.447 4.453l5.446 3.957a2.462 2.462 0 0 1 .894 2.752l-2.081 6.402c-.737 2.268 1.859 4.154 3.788 2.752l5.445-3.957a2.461 2.461 0 0 1 2.894 0l5.445 3.957c1.93 1.401 4.525-.484 3.789-2.752l-2.081-6.402a2.463 2.463 0 0 1 .894-2.752l5.446-3.957c1.929-1.401.938-4.453-1.446-4.453h-6.732a2.463 2.463 0 0 1-2.341-1.701l-2.08-6.402c-.737-2.268-3.945-2.268-4.683 0z"/></symbol>
<symbol id="search" viewBox="0 0 32 32"><path stroke-linejoin="round" stroke-width="2.667" d="M14.667 25.333C8.776 25.333 4 20.557 4 14.666S8.776 3.999 14.667 3.999s10.667 4.776 10.667 10.667-4.776 10.667-10.667 10.667z"/><path stroke-linecap="round" stroke-linejoin="round" stroke-width="2.667" d="m28 28-5.8-5.8"/></symbol>
<symbol id="commas" viewBox="0 0 32 32"><path d="M8.201 17.468c1.546-.612 2.785-.452 3.719.481s1.21 2.421.831 4.462c-.292 1.517-.933 2.683-1.925 3.5-.962.788-2.085 1.181-3.369 1.181-1.75 0-2.96-.671-3.631-2.012-.671-1.371-.802-3.208-.394-5.513.233-1.254.612-2.523 1.137-3.806s1.225-2.596 2.1-3.937 2.013-2.508 3.413-3.5a11.225 11.225 0 0 1 4.638-1.925l-.437 4.637c-1.429.292-2.698 1.035-3.806 2.231-1.108 1.167-1.867 2.567-2.275 4.2zm13.169 0c1.546-.612 2.785-.452 3.719.481s1.21 2.421.831 4.462c-.292 1.517-.933 2.683-1.925 3.5-.962.788-2.085 1.181-3.369 1.181-1.75 0-2.96-.671-3.631-2.012-.671-1.371-.802-3.208-.394-5.513.233-1.254.613-2.523 1.138-3.806s1.225-2.596 2.1-3.937 2.012-2.508 3.412-3.5a11.225 11.225 0 0 1 4.638-1.925l-.438 4.637c-1.429.292-2.698 1.035-3.806 2.231-1.108 1.167-1.867 2.567-2.275 4.2z"/></symbol>


<symbol id="heart" viewBox="0 0 32 32"><path stroke-linejoin="round" stroke-width="2.4" d="M25.408 4.556a7.33 7.33 0 0 0-7.994 1.591L16.001 7.56l-1.413-1.413a7.333 7.333 0 0 0-10.374 0 7.333 7.333 0 0 0 0 10.374l11.787 11.787 11.787-11.787a7.345 7.345 0 0 0 2.15-5.187 7.33 7.33 0 0 0-2.15-5.187 7.345 7.345 0 0 0-2.38-1.591z"/></symbol>
<symbol id="youtube" viewBox="0 0 32 32"><path d="M21.244 9.636c-.865-.051-2.647-.102-5.345-.102h-.357c-2.596 0-4.327.051-5.192.153-1.171.102-1.986.407-2.444.815-.407.356-.712 1.018-.815 1.884-.05.56-.102 1.731-.102 3.513v.254c0 1.68.051 2.851.153 3.411.153.815.408 1.426.916 1.782.509.407 1.375.662 2.597.764.866.051 2.647.102 5.345.102h.357c2.597 0 4.327-.051 5.193-.153 1.17-.102 1.985-.407 2.443-.815.408-.356.713-1.018.815-1.884.051-.56.102-1.731.102-3.513v-.255c0-1.68-.05-2.851-.153-3.411-.153-.815-.407-1.425-.916-1.782-.509-.407-1.374-.662-2.597-.764zm-1.985 6.262-5.6 3.36v-6.72l5.6 3.36z"/><path stroke-width=".727" d="M4 .364h24A3.636 3.636 0 0 1 31.636 4v24A3.636 3.636 0 0 1 28 31.636H4A3.636 3.636 0 0 1 .364 28V4A3.636 3.636 0 0 1 4 .364z"/></symbol>
<symbol id="instagramm" viewBox="0 0 32 32"><path d="M24.093 12.663a5.895 5.895 0 0 0-.379-2.001 4.166 4.166 0 0 0-2.382-2.378 5.955 5.955 0 0 0-1.977-.379c-.87-.039-1.146-.05-3.355-.05s-2.493 0-3.357.05a5.99 5.99 0 0 0-1.977.379 4.163 4.163 0 0 0-2.382 2.378 5.916 5.916 0 0 0-.379 1.973c-.038.87-.05 1.145-.05 3.351s0 2.487.05 3.351c.014.676.141 1.342.379 1.975a4.166 4.166 0 0 0 2.383 2.377 5.94 5.94 0 0 0 1.977.406c.871.039 1.147.051 3.357.051s2.492 0 3.356-.051a6 6 0 0 0 1.978-.378 4.174 4.174 0 0 0 2.382-2.378 5.948 5.948 0 0 0 .379-1.975c.039-.869.051-1.144.051-3.351-.002-2.205-.002-2.485-.053-3.35zm-8.099 7.493c-2.31 0-4.183-1.869-4.183-4.175s1.872-4.175 4.183-4.175c2.308 0 4.182 1.869 4.182 4.175s-1.874 4.175-4.182 4.175zm4.348-7.531a.973.973 0 1 1 0-1.948.973.973 0 1 1 0 1.948z"/><path d="M18.543 15.982a2.548 2.548 0 1 1-5.097 0 2.548 2.548 0 0 1 5.097 0z"/><path stroke-width=".727" d="M4 .364h24A3.636 3.636 0 0 1 31.636 4v24A3.636 3.636 0 0 1 28 31.636H4A3.636 3.636 0 0 1 .364 28V4A3.636 3.636 0 0 1 4 .364z"/></symbol><symbol id="facebook" viewBox="0 0 32 32"><path d="M18.24 8.771h.611v2.291h-.764c-.306 0-.611 0-.764.153-.153.153-.153.305-.153.662v.815h1.68v1.935h-1.68v8.4h-2.597v-8.451h-1.374v-1.935h1.374v-.662c0-1.12.153-1.935.458-2.291.459-.662 1.375-.967 2.749-.967.153.051.305.051.458.051z"/><path stroke-width=".727" d="M4 .364h24A3.636 3.636 0 0 1 31.636 4v24A3.636 3.636 0 0 1 28 31.636H4A3.636 3.636 0 0 1 .364 28V4A3.636 3.636 0 0 1 4 .364z"/></symbol>
<symbol id="barbell" viewBox="0 0 32 32"><path d="M7.36 9.143H5.44c-.532 0-.96.459-.96 1.029v4.457h-.959c-.177 0-.32.154-.32.343v2.057c0 .188.144.343.32.343h.959v4.457c0 .57.428 1.028.96 1.028h1.92c.532 0 .96-.459.96-1.028V10.172c0-.57-.428-1.029-.96-1.029zm21.12 5.486h-.959v-4.457c0-.57-.428-1.029-.96-1.029h-1.92c-.532 0-.96.459-.96 1.029v11.657c0 .57.428 1.028.96 1.028h1.92c.532 0 .96-.459.96-1.028v-4.457h.959c.177 0 .32-.154.32-.343v-2.057c0-.189-.144-.343-.32-.343zM21.44 6.4h-1.92c-.532 0-.96.459-.96 1.029v7.2h-5.12v-7.2c0-.57-.428-1.029-.96-1.029h-1.92c-.532 0-.96.459-.96 1.029v17.143c0 .57.428 1.029.96 1.029h1.92c.532 0 .96-.459.96-1.029v-7.2h5.12v7.2c0 .57.428 1.029.96 1.029h1.92c.532 0 .96-.459.96-1.029V7.429c0-.57-.428-1.029-.96-1.029z"/></symbol>
<symbol id="align-justify" viewBox="0 0 32 32"><path stroke-linecap="round" stroke-linejoin="round" stroke-width="2" d="M28 18.333H4M28 13H4"/></symbol>
<symbol id="arrows-top" viewBox="0 0 32 32"><path d="M16.881 7.414v17.504H15.02V7.414l-8.752 8.752-1.317-1.317 11-11 11 11-1.318 1.317-8.752-8.752z"/><path stroke-width=".514" d="M16.881 24.918H15.02V7.414l-8.752 8.752-1.317-1.317 11-11 11 11-1.318 1.317-8.752-8.752v17.504z"/></symbol>
</defs></svg> -->





<svg xmlns="http://www.w3.org/2000/svg" aria-hidden="true" style="position:absolute;width:0;height:0;overflow:hidden">
	<defs>
		<symbol id="icon-align-justify" viewBox="0 0 32 32">
			<path fill="none" stroke="#7e847f" stroke-linecap="round" stroke-linejoin="round" stroke-width="2" d="M28 18.333H4M28 13H4" style="stroke:var(--color1, #7e847f)" />
		</symbol>
		<symbol id="icon-arrow" viewBox="0 0 32 32">
			<path stroke-linecap="round" stroke-linejoin="round" stroke-width="2.6" d="m15 28 13-13m0 0L15 2m13 13H2" />
		</symbol>
		<symbol id="icon-dambbell" viewBox="0 0 32 32">
			<path d="M5.2 7.429H2.8c-.665 0-1.2.573-1.2 1.286v5.571H.4c-.22 0-.4.193-.4.429v2.571c0 .236.18.429.4.429h1.2v5.571c0 .712.535 1.286 1.2 1.286h2.4c.665 0 1.2-.573 1.2-1.286V8.715c0-.713-.535-1.286-1.2-1.286zm26.4 6.857h-1.2V8.715c0-.713-.535-1.286-1.2-1.286h-2.4c-.665 0-1.2.573-1.2 1.286v14.571c0 .712.535 1.286 1.2 1.286h2.4c.665 0 1.2-.573 1.2-1.286v-5.571h1.2c.22 0 .4-.193.4-.429v-2.571c0-.236-.18-.429-.4-.429zM22.8 4h-2.4c-.665 0-1.2.573-1.2 1.286v9h-6.4v-9C12.8 4.573 12.265 4 11.6 4H9.2C8.535 4 8 4.573 8 5.286v21.428C8 27.427 8.535 28 9.2 28h2.4c.665 0 1.2-.573 1.2-1.286v-9h6.4v9c0 .713.535 1.286 1.2 1.286h2.4c.665 0 1.2-.573 1.2-1.286V5.286C24 4.573 23.465 4 22.8 4z" />
		</symbol>
		<symbol id="icon-fav_run_man" viewBox="0 0 32 32">
			<path fill="#7e847f" d="M32 16c0 8.837-7.163 16-16 16S0 24.837 0 16 7.163 0 16 0s16 7.163 16 16z" style="fill:var(--color1, #7e847f)" />
			<path fill="#f6f6f6" d="M25.098 11.634a.79.79 0 0 0-1.111-.099l-2.188 1.838-1.006-2.493a.757.757 0 0 0-.153-.241 2.148 2.148 0 0 0-1.055-1.078 2.158 2.158 0 0 0-.655-.174c-.049-.025-.093-.059-.148-.076l-3.85-1.073a.792.792 0 0 0-.611.083.77.77 0 0 0-.479.448l-1.45 3.728a.791.791 0 0 0 .451 1.022.79.79 0 0 0 1.021-.452l1.225-3.148 1.754.488c-.043.069-.089.134-.124.208l-2.248 4.873c-.032.072-.05.144-.073.218l-2.732 4.58-4.572 1.53a1.168 1.168 0 0 0 1.387 1.879l4.679-1.611c.143-.104.247-.24.326-.387.059-.062.126-.112.171-.189l1.629-2.731 2.891 2.464-3.094 3.486a1.167 1.167 0 0 0 1.747 1.547l3.861-4.349c.12-.134.192-.289.24-.451.029-.088.029-.179.036-.27 0-.046.017-.088.014-.131a1.142 1.142 0 0 0-.401-.849l-2.661-2.269c.192-.183.355-.4.473-.655l1.724-3.733.552 1.471a.742.742 0 0 0 .159.366.754.754 0 0 0 .303.211c.012.006.025.007.039.01a.738.738 0 0 0 .489.024l.003-.001c.024-.006.049-.001.073-.012a.8.8 0 0 0 .311-.226l3.14-2.665c.334-.281.193-.777-.088-1.111zM21.126 9.735a2.201 2.201 0 1 0 0-4.402 2.201 2.201 0 0 0 0 4.402z" style="fill:var(--color2, #f6f6f6)" />
		</symbol>
		<symbol id="icon-fluent_food-24-filled" viewBox="0 0 32 32">
			<path fill="#f6f6f6" d="M7.36 9.143H5.44c-.532 0-.96.459-.96 1.029v4.457h-.96c-.176 0-.32.154-.32.343v2.057c0 .188.144.343.32.343h.96v4.457c0 .57.428 1.028.96 1.028h1.92c.532 0 .96-.459.96-1.028V10.172c0-.57-.428-1.029-.96-1.029zm21.12 5.486h-.96v-4.457c0-.57-.428-1.029-.96-1.029h-1.92c-.532 0-.96.459-.96 1.029v11.657c0 .57.428 1.028.96 1.028h1.92c.532 0 .96-.459.96-1.028v-4.457h.96c.176 0 .32-.154.32-.343v-2.057c0-.189-.144-.343-.32-.343zM21.44 6.4h-1.92c-.532 0-.96.459-.96 1.029v7.2h-5.12v-7.2c0-.57-.428-1.029-.96-1.029h-1.92c-.532 0-.96.459-.96 1.029v17.143c0 .57.428 1.029.96 1.029h1.92c.532 0 .96-.459.96-1.029v-7.2h5.12v7.2c0 .57.428 1.029.96 1.029h1.92c.532 0 .96-.459.96-1.029V7.429c0-.57-.428-1.029-.96-1.029z" style="fill:var(--color2, #f6f6f6)" />
		</symbol>
		<symbol id="icon-heart" viewBox="0 0 32 32">
			<path fill="none" stroke="#f6f6f6" stroke-linecap="round" stroke-linejoin="round" stroke-width="2.4" d="M27.787 6.147a7.345 7.345 0 0 0-5.187-2.15 7.33 7.33 0 0 0-5.187 2.15L16 7.56l-1.413-1.413a7.333 7.333 0 0 0-10.374 0 7.333 7.333 0 0 0 0 10.374L16 28.308l11.787-11.787a7.345 7.345 0 0 0 2.15-5.187 7.33 7.33 0 0 0-2.15-5.187z" style="stroke:var(--color2, #f6f6f6)" />
		</symbol>
		<symbol id="icon-inverted_commas28" viewBox="0 0 32 32">
			<path fill="#f6f6f6" d="M8.201 17.468c1.546-.612 2.785-.452 3.719.481s1.21 2.421.831 4.463c-.292 1.517-.933 2.683-1.925 3.5-.963.788-2.085 1.181-3.369 1.181-1.75 0-2.96-.671-3.631-2.012-.671-1.371-.802-3.208-.394-5.513.233-1.254.612-2.523 1.138-3.806s1.225-2.596 2.1-3.938 2.012-2.508 3.412-3.5 2.946-1.633 4.637-1.925l-.438 4.638c-1.429.292-2.698 1.035-3.806 2.231-1.108 1.167-1.867 2.567-2.275 4.2zm13.169 0c1.546-.612 2.785-.452 3.719.481s1.21 2.421.831 4.463c-.292 1.517-.933 2.683-1.925 3.5-.962.788-2.085 1.181-3.369 1.181-1.75 0-2.96-.671-3.631-2.012-.671-1.371-.802-3.208-.394-5.513.233-1.254.613-2.523 1.137-3.806s1.225-2.596 2.1-3.938 2.013-2.508 3.413-3.5 2.946-1.633 4.637-1.925l-.438 4.638c-1.429.292-2.698 1.035-3.806 2.231-1.108 1.167-1.867 2.567-2.275 4.2z" style="fill:var(--color2, #f6f6f6)" />
		</symbol>
		<symbol id="icon-inverted_commas48" viewBox="0 0 32 32">
			<path fill="#f6f6f6" d="M8.201 17.468c1.546-.612 2.785-.452 3.719.481s1.21 2.421.831 4.462c-.292 1.517-.933 2.683-1.925 3.5-.962.788-2.085 1.181-3.369 1.181-1.75 0-2.96-.671-3.631-2.013-.671-1.371-.802-3.208-.394-5.512.233-1.254.613-2.523 1.137-3.806s1.225-2.596 2.1-3.937c.875-1.342 2.013-2.508 3.413-3.5s2.946-1.633 4.638-1.925l-.438 4.637c-1.429.292-2.698 1.035-3.806 2.231-1.108 1.167-1.867 2.567-2.275 4.2zm13.169 0c1.546-.612 2.785-.452 3.719.481s1.21 2.421.831 4.462c-.292 1.517-.933 2.683-1.925 3.5-.963.788-2.085 1.181-3.369 1.181-1.75 0-2.96-.671-3.631-2.013-.671-1.371-.802-3.208-.394-5.512.233-1.254.613-2.523 1.138-3.806s1.225-2.596 2.1-3.937 2.012-2.508 3.412-3.5a11.225 11.225 0 0 1 4.638-1.925l-.438 4.637c-1.429.292-2.698 1.035-3.806 2.231-1.108 1.167-1.867 2.567-2.275 4.2z" style="fill:var(--color2, #f6f6f6)" />
		</symbol>
		<symbol id="icon-run_man" viewBox="0 0 32 32">
			<path fill="#f6f6f6" d="M30.118 16c0 8.317-6.742 15.059-15.059 15.059S0 24.317 0 16 6.742.941 15.059.941 30.118 7.683 30.118 16z" opacity=".1" style="fill:var(--color2, #f6f6f6)" />
			<path fill="#f6f6f6" d="M23.275 12.148a.725.725 0 0 0-1.003-.088l-1.976 1.622-.909-2.2a.658.658 0 0 0-.138-.213 1.912 1.912 0 0 0-.952-.951 1.971 1.971 0 0 0-.591-.154c-.044-.022-.083-.052-.134-.067l-3.477-.947a.734.734 0 0 0-.552.073.688.688 0 0 0-.433.396l-1.309 3.289a.694.694 0 0 0 .407.902.72.72 0 0 0 .922-.399l1.106-2.778 1.584.43c-.039.061-.08.118-.112.183l-2.03 4.299c-.029.063-.045.127-.066.193l-2.467 4.042-4.129 1.35a1.018 1.018 0 0 0-.221 1.441 1.07 1.07 0 0 0 1.474.217l4.225-1.422c.129-.092.223-.212.294-.341.053-.055.114-.099.154-.167l1.471-2.41 2.611 2.174-2.794 3.076a1.013 1.013 0 0 0 .09 1.453 1.072 1.072 0 0 0 1.489-.088l3.486-3.838c.109-.118.173-.255.217-.397.026-.078.026-.158.032-.239 0-.041.016-.077.013-.115a.999.999 0 0 0-.362-.749l-2.403-2.002c.173-.161.32-.353.427-.578l1.556-3.293.499 1.298a.656.656 0 0 0 .144.323.686.686 0 0 0 .273.187c.01.005.023.006.035.009a.689.689 0 0 0 .442.022l.003-.001c.022-.005.044-.001.066-.01a.708.708 0 0 0 .281-.2l2.835-2.352c.301-.248.174-.686-.079-.981zM19.689 10.472c1.098 0 1.987-.869 1.987-1.942s-.89-1.942-1.987-1.942c-1.098 0-1.987.869-1.987 1.942s.89 1.942 1.987 1.942z" style="fill:var(--color2, #f6f6f6)" />
		</symbol>
		<symbol id="icon-search" viewBox="0 0 32 32">
			<path stroke-linecap="round" stroke-linejoin="round" stroke-width="2.667" d="M14.667 25.333c5.891 0 10.667-4.776 10.667-10.667S20.558 3.999 14.667 3.999 4 8.775 4 14.666s4.776 10.667 10.667 10.667zM28 28l-5.8-5.8" />
		</symbol>
		<symbol id="icon-star_yellow" viewBox="0 0 32 32">
			<path fill="#eea10c" d="M13.826 3.262c.684-2.106 3.663-2.106 4.348 0l1.932 5.945a2.285 2.285 0 0 0 2.174 1.579h6.251c2.214 0 3.135 2.833 1.344 4.135l-5.057 3.674a2.286 2.286 0 0 0-.83 2.556l1.931 5.945c.684 2.106-1.726 3.857-3.517 2.555l-5.057-3.674a2.286 2.286 0 0 0-2.687 0l-5.057 3.674c-1.791 1.302-4.202-.45-3.517-2.555l1.932-5.945a2.287 2.287 0 0 0-.83-2.556l-5.057-3.674c-1.791-1.302-.871-4.135 1.344-4.135h6.251c.99 0 1.868-.638 2.174-1.579l1.932-5.945z" style="fill:var(--color3, #eea10c)" />
		</symbol>
		<symbol id="icon-star_grey" viewBox="0 0 32 32">
			<path d="M14.478 2.283c.479-1.474 2.564-1.474 3.043 0l2.43 7.478a1.6 1.6 0 0 0 1.522 1.106h7.863c1.55 0 2.194 1.983.94 2.894l-6.361 4.622a1.6 1.6 0 0 0-.581 1.789l2.43 7.478c.479 1.474-1.208 2.7-2.462 1.789l-6.361-4.622a1.602 1.602 0 0 0-1.881 0l-6.361 4.622c-1.254.911-2.941-.315-2.462-1.789l2.43-7.478a1.6 1.6 0 0 0-.581-1.789l-6.361-4.622c-1.254-.911-.61-2.894.94-2.894h7.863a1.6 1.6 0 0 0 1.522-1.106l2.43-7.478z" />
		</symbol>
		<symbol id="icon-star_tp" viewBox="0 0 34 32">
			<path d="M15.24 1.561c.504-1.552 2.699-1.552 3.204 0l2.558 7.872a1.684 1.684 0 0 0 1.602 1.164h8.277c1.632 0 2.31 2.088.99 3.047l-6.696 4.865a1.685 1.685 0 0 0-.612 1.883l2.558 7.872c.504 1.552-1.272 2.842-2.592 1.883l-6.696-4.865a1.684 1.684 0 0 0-1.98 0l-6.696 4.865c-1.32.959-3.096-.331-2.592-1.883l2.558-7.872a1.685 1.685 0 0 0-.612-1.883l-6.696-4.865c-1.32-.959-.642-3.047.99-3.047h8.277c.73 0 1.376-.47 1.602-1.164l2.558-7.872z" />
		</symbol>
		<symbol id="icon-x" viewBox="0 0 32 32">
			<path fill="none" stroke="#f6f6f6" stroke-linecap="round" stroke-linejoin="round" stroke-width="3.2" d="M24 8 8 24M8 8l16 16" style="stroke:var(--color2, #f6f6f6)" />
		</symbol>
		<symbol id="icon-arrow-top-right" viewBox="0 0 32 32">
			<path stroke-width=".48" d="M17.036 7.986v16.338h-1.738V7.986l-8.169 8.169L5.9 14.926 16.167 4.659l10.267 10.267-1.229 1.229-8.169-8.169z" />
		</symbol>
		<symbol id="icon-facebook" viewBox="0 0 32 32">
			<path d="M19.52 4.64h.96v3.6h-1.2c-.48 0-.96 0-1.2.24s-.24.48-.24 1.04v1.28h2.64v3.04h-2.64v13.2h-4.08V13.76H11.6v-3.04h2.16V9.68c0-1.76.24-3.04.72-3.6.72-1.04 2.16-1.52 4.32-1.52.24.08.48.08.72.08z" />
		</symbol>
		<symbol id="icon-instagram" viewBox="0 0 32 32">
			<path d="M28.717 10.756a9.264 9.264 0 0 0-.596-3.145 6.547 6.547 0 0 0-3.743-3.737 9.42 9.42 0 0 0-3.108-.596c-1.368-.061-1.801-.078-5.273-.078s-3.917 0-5.274.078a9.418 9.418 0 0 0-3.106.596 6.541 6.541 0 0 0-3.743 3.737 9.288 9.288 0 0 0-.596 3.101c-.061 1.367-.08 1.8-.08 5.265s0 3.909.08 5.265a9.335 9.335 0 0 0 .596 3.104 6.548 6.548 0 0 0 3.744 3.735 9.37 9.37 0 0 0 3.106.639c1.369.061 1.803.08 5.274.08s3.916 0 5.274-.08a9.357 9.357 0 0 0 3.108-.595 6.555 6.555 0 0 0 3.743-3.737 9.35 9.35 0 0 0 .596-3.104c.061-1.365.08-1.798.08-5.265-.003-3.466-.003-3.906-.082-5.264zM15.99 22.531c-3.631 0-6.572-2.936-6.572-6.561s2.941-6.561 6.572-6.561c3.628 0 6.572 2.936 6.572 6.561s-2.944 6.561-6.572 6.561zm6.833-11.835a1.53 1.53 0 1 1 0-3.06 1.53 1.53 0 1 1 0 3.06z" />
			<path d="M15.992 19.976a4.004 4.004 0 1 0 0-8.009 4.004 4.004 0 0 0 0 8.009z" />
		</symbol>
		<symbol id="icon-trash" viewBox="0 0 32 32">
			<path stroke-linecap="round" stroke-linejoin="round" stroke-width="2.6" d="M21.333 8V6.933c0-1.493 0-2.24-.291-2.811a2.666 2.666 0 0 0-1.165-1.165c-.57-.291-1.317-.291-2.811-.291h-2.133c-1.493 0-2.24 0-2.811.291-.502.256-.91.664-1.165 1.165-.291.57-.291 1.317-.291 2.811V8m2.667 7.333V22m5.334-6.667V22M4 8h24m-2.667 0v14.933c0 2.24 0 3.36-.436 4.216a3.996 3.996 0 0 1-1.748 1.748c-.856.436-1.976.436-4.216.436h-5.867c-2.24 0-3.36 0-4.216-.436a3.996 3.996 0 0 1-1.748-1.748c-.436-.856-.436-1.976-.436-4.216V8" />
		</symbol>
		<symbol id="icon-youtube" viewBox="0 0 32 32">
			<path d="M24.24 6c-1.36-.08-4.16-.16-8.4-.16h-.56c-4.08 0-6.8.08-8.16.24-1.84.16-3.12.64-3.84 1.28-.64.56-1.12 1.6-1.28 2.96-.08.88-.16 2.72-.16 5.52v.4c0 2.64.08 4.48.24 5.36.24 1.28.64 2.24 1.44 2.8.8.64 2.16 1.04 4.08 1.2 1.36.08 4.16.16 8.4.16h.56c4.08 0 6.8-.08 8.16-.24 1.84-.16 3.12-.64 3.84-1.28.64-.56 1.12-1.6 1.28-2.96.08-.88.16-2.72.16-5.52v-.4c0-2.64-.08-4.48-.24-5.36-.24-1.28-.64-2.24-1.44-2.8-.8-.64-2.16-1.04-4.08-1.2zm-3.12 9.84-8.8 5.28V10.56l8.8 5.28z" />
		</symbol>
	</defs>
</svg>