<svg xmlns="http://www.w3.org/2000/svg" aria-hidden="true" style="position:absolute;width:0;height:0;overflow:hidden"><defs><symbol id="icon-cross" viewBox="0 0 32 32"><path stroke-linejoin="round" stroke-width="2.286" d="M22.666 9.333 9.333 22.666m0-13.333 13.333 13.333"/></symbol><symbol id="icon-trash" viewBox="0 0 32 32"><path stroke-linejoin="round" stroke-width="2.6" d="M10.667 8V6.933c0-1.493 0-2.24.29-2.811.256-.502.664-.91 1.166-1.165.57-.291 1.316-.291 2.811-.291h2.133c1.494 0 2.24 0 2.811.291.502.256.91.664 1.166 1.165.29.57.29 1.317.29 2.811V8m-8.001 7.333V22m5.334-6.667V22M4 8h24m-2.667 0v14.933c0 2.24 0 3.36-.436 4.216a3.996 3.996 0 0 1-1.748 1.748c-.855.436-1.976.436-4.216.436h-5.867c-2.24 0-3.36 0-4.216-.436a4.001 4.001 0 0 1-1.748-1.748c-.436-.856-.436-1.976-.436-4.216V8"/></symbol><symbol id="icon-star" viewBox="0 0 32 32"><path fill="#eea10c" d="m13.618 2.932-2.08 6.402a2.462 2.462 0 0 1-2.341 1.701H2.465c-2.384 0-3.376 3.051-1.447 4.453l5.446 3.957a2.462 2.462 0 0 1 .894 2.752l-2.081 6.402c-.737 2.268 1.859 4.154 3.788 2.752l5.445-3.957a2.461 2.461 0 0 1 2.894 0l5.445 3.957c1.93 1.401 4.525-.484 3.789-2.752l-2.081-6.402a2.463 2.463 0 0 1 .894-2.752l5.446-3.957c1.929-1.401.938-4.453-1.446-4.453h-6.732a2.463 2.463 0 0 1-2.341-1.701l-2.08-6.402c-.737-2.268-3.945-2.268-4.683 0z" style="fill:var(--color1, #eea10c)"/></symbol><symbol id="icon-search" viewBox="0 0 32 32"><path stroke-linejoin="round" stroke-width="2.667" d="M14.667 25.333C8.776 25.333 4 20.557 4 14.666S8.776 3.999 14.667 3.999s10.667 4.776 10.667 10.667-4.776 10.667-10.667 10.667z"/><path stroke-linecap="round" stroke-linejoin="round" stroke-width="2.667" d="m28 28-5.8-5.8"/></symbol><symbol id="icon-quotes" viewBox="0 0 32 32"><path fill="#f6f6f6" d="M8.201 17.468c1.546-.612 2.785-.452 3.719.481s1.21 2.421.831 4.462c-.292 1.517-.933 2.683-1.925 3.5-.962.788-2.085 1.181-3.369 1.181-1.75 0-2.96-.671-3.631-2.012-.671-1.371-.802-3.208-.394-5.513.233-1.254.612-2.523 1.137-3.806s1.225-2.596 2.1-3.937 2.013-2.508 3.413-3.5a11.225 11.225 0 0 1 4.638-1.925l-.437 4.637c-1.429.292-2.698 1.035-3.806 2.231-1.108 1.167-1.867 2.567-2.275 4.2zm13.169 0c1.546-.612 2.785-.452 3.719.481s1.21 2.421.831 4.462c-.292 1.517-.933 2.683-1.925 3.5-.962.788-2.085 1.181-3.369 1.181-1.75 0-2.96-.671-3.631-2.012-.671-1.371-.802-3.208-.394-5.513.233-1.254.613-2.523 1.138-3.806s1.225-2.596 2.1-3.937 2.012-2.508 3.412-3.5a11.225 11.225 0 0 1 4.638-1.925l-.438 4.637c-1.429.292-2.698 1.035-3.806 2.231-1.108 1.167-1.867 2.567-2.275 4.2z" style="fill:var(--color2, #f6f6f6)"/></symbol><symbol id="icon-dumbbells" viewBox="0 0 32 32"><path fill="#f6f6f6" d="M30.118 16c0 8.317-6.742 15.059-15.059 15.059S0 24.317 0 16 6.742.941 15.059.941 30.118 7.683 30.118 16z" opacity=".1" style="fill:var(--color2, #f6f6f6)"/><path fill="#f6f6f6" d="M9.976 11.966H8.847c-.313 0-.565.27-.565.605v2.622h-.565c-.104 0-.188.091-.188.202v1.21c0 .111.085.202.188.202h.565v2.622c0 .335.252.605.565.605h1.129c.313 0 .565-.27.565-.605v-6.857c0-.335-.252-.605-.565-.605zM22.4 15.193h-.565v-2.622c0-.335-.252-.605-.565-.605h-1.129c-.313 0-.565.27-.565.605v6.857c0 .335.252.605.565.605h1.129c.313 0 .565-.27.565-.605v-2.622h.565c.104 0 .188-.091.188-.202v-1.21c0-.111-.085-.202-.188-.202zm-4.141-4.84H17.13c-.313 0-.565.27-.565.605v4.235h-3.012v-4.235c0-.335-.252-.605-.565-.605h-1.129c-.313 0-.565.27-.565.605v10.084c0 .335.252.605.565.605h1.129c.313 0 .565-.27.565-.605v-4.235h3.012v4.235c0 .335.252.605.565.605h1.129c.313 0 .565-.27.565-.605V10.958c0-.335-.252-.605-.565-.605z" style="fill:var(--color2, #f6f6f6)"/></symbol><symbol id="icon-running_man" viewBox="0 0 32 32"><path fill="#f6f6f6" d="M30.118 16c0 8.317-6.742 15.059-15.059 15.059S0 24.317 0 16 6.742.941 15.059.941 30.118 7.683 30.118 16z" opacity=".1" style="fill:var(--color2, #f6f6f6)"/><path fill="#f6f6f6" d="M23.275 12.148a.727.727 0 0 0-1.004-.088l-1.976 1.622-.909-2.2a.658.658 0 0 0-.138-.213 1.912 1.912 0 0 0-.952-.951 1.97 1.97 0 0 0-.592-.154c-.044-.022-.083-.052-.133-.067l-3.477-.947a.734.734 0 0 0-.552.073.688.688 0 0 0-.433.396L11.8 12.908a.694.694 0 0 0 .407.902.72.72 0 0 0 .922-.399l1.106-2.778 1.584.43c-.039.061-.08.118-.112.183l-2.03 4.299c-.029.063-.045.127-.066.193l-2.467 4.042-4.129 1.35a1.018 1.018 0 0 0-.221 1.441 1.07 1.07 0 0 0 1.474.217l4.225-1.422c.129-.092.223-.212.294-.341.053-.055.114-.099.154-.167l1.471-2.41 2.611 2.174-2.794 3.076a1.013 1.013 0 0 0 .09 1.453 1.072 1.072 0 0 0 1.489-.088l3.486-3.838c.109-.118.173-.255.217-.398.026-.077.026-.158.032-.238 0-.041.016-.078.013-.115a.997.997 0 0 0-.362-.749l-2.403-2.002c.173-.161.32-.353.427-.578l1.557-3.293.499 1.298c.021.115.06.228.144.323a.686.686 0 0 0 .273.187c.01.005.023.006.035.009.065.022.13.044.198.047a.705.705 0 0 0 .244-.025l.003-.001c.022-.005.044-.001.066-.01a.708.708 0 0 0 .281-.2l2.835-2.352c.301-.248.174-.686-.079-.981zM21.676 8.53c0 1.072-.89 1.942-1.987 1.942s-1.987-.869-1.987-1.942.89-1.942 1.987-1.942c1.098 0 1.987.869 1.987 1.942z" style="fill:var(--color2, #f6f6f6)"/></symbol><symbol id="icon-arrow-right" viewBox="0 0 32 32"><path stroke-linejoin="round" stroke-width="2.908" d="M15.995 30.54 30.535 16 15.995 1.46M1.455 16h29.08"/></symbol><symbol id="icon-heart" viewBox="0 0 32 32"><path fill="none" stroke="#f6f6f6" stroke-linejoin="round" stroke-width="2.4" d="M25.408 4.556a7.33 7.33 0 0 0-7.994 1.591L16.001 7.56l-1.413-1.413a7.333 7.333 0 0 0-10.374 0 7.333 7.333 0 0 0 0 10.374l11.787 11.787 11.787-11.787a7.345 7.345 0 0 0 2.15-5.187 7.33 7.33 0 0 0-2.15-5.187 7.345 7.345 0 0 0-2.38-1.591z" style="stroke:var(--color2, #f6f6f6)"/></symbol><symbol id="icon-youtube" viewBox="0 0 32 32"><path d="M24.241 6c-1.36-0.080-4.16-0.16-8.4-0.16h-0.56c-4.080 0-6.8 0.080-8.16 0.24-1.84 0.16-3.12 0.64-3.84 1.28-0.64 0.56-1.12 1.6-1.28 2.96-0.080 0.88-0.16 2.72-0.16 5.52v0.4c0 2.64 0.080 4.48 0.24 5.36 0.24 1.28 0.64 2.24 1.44 2.8 0.8 0.64 2.16 1.040 4.080 1.2 1.36 0.080 4.16 0.16 8.4 0.16h0.56c4.080 0 6.8-0.080 8.16-0.24 1.84-0.16 3.12-0.64 3.84-1.28 0.64-0.56 1.12-1.6 1.28-2.96 0.080-0.88 0.16-2.72 0.16-5.52v-0.4c0-2.64-0.080-4.48-0.24-5.36-0.24-1.28-0.64-2.24-1.44-2.8-0.8-0.64-2.16-1.040-4.080-1.2zM21.121 15.84l-8.8 5.28v-10.56l8.8 5.28z"></path></symbol><symbol id="icon-instagram" viewBox="0 0 32 32"><path d="M28.718 10.756c-0.016-1.074-0.215-2.14-0.596-3.145-0.667-1.716-2.024-3.073-3.743-3.737-0.994-0.373-2.044-0.573-3.108-0.596-1.368-0.061-1.801-0.078-5.273-0.078s-3.916 0-5.274 0.078c-1.062 0.023-2.112 0.223-3.106 0.596-1.719 0.664-3.078 2.021-3.743 3.737-0.374 0.992-0.576 2.041-0.596 3.101-0.061 1.367-0.080 1.8-0.080 5.265s0 3.909 0.080 5.265c0.021 1.062 0.222 2.109 0.596 3.104 0.667 1.715 2.024 3.071 3.744 3.736 0.989 0.386 2.040 0.604 3.106 0.639 1.369 0.061 1.803 0.080 5.274 0.080s3.916 0 5.274-0.080c1.062-0.021 2.112-0.221 3.108-0.595 1.719-0.666 3.076-2.022 3.743-3.737 0.374-0.994 0.574-2.041 0.596-3.104 0.061-1.365 0.080-1.798 0.080-5.265-0.003-3.466-0.003-3.906-0.082-5.264zM15.99 22.531c-3.631 0-6.572-2.936-6.572-6.561s2.941-6.561 6.572-6.561c3.628 0 6.572 2.936 6.572 6.561s-2.944 6.561-6.572 6.561zM22.824 10.696c-0.849 0-1.532-0.684-1.532-1.53s0.684-1.53 1.532-1.53c0.846 0 1.531 0.684 1.531 1.53s-0.685 1.53-1.531 1.53z"></path><path d="M15.992 19.976c2.211 0 4.004-1.793 4.004-4.004s-1.793-4.004-4.004-4.004-4.004 1.793-4.004 4.004c0 2.211 1.793 4.004 4.004 4.004z"></path></symbol><symbol id="icon-facebook" viewBox="0 0 32 32"><path d="M19.52 4.64c0.24 0 0.48 0 0.96 0v3.6c-0.24 0-0.72 0-1.2 0s-0.96 0-1.2 0.24c-0.24 0.24-0.24 0.48-0.24 1.040 0 0.48 0 0.8 0 1.28h2.64v3.040h-2.64v13.2h-4.080v-13.28h-2.16v-3.040h2.16v-1.040c0-1.76 0.24-3.040 0.72-3.6 0.72-1.040 2.16-1.52 4.32-1.52 0.24 0.080 0.48 0.080 0.72 0.080z"></path></symbol><symbol id="icon-dumbbells-dark" viewBox="0 0 32 32"><path d="M7.36 9.143H5.44c-.532 0-.96.459-.96 1.029v4.457h-.959c-.177 0-.32.154-.32.343v2.057c0 .188.144.343.32.343h.959v4.457c0 .57.428 1.028.96 1.028h1.92c.532 0 .96-.459.96-1.028V10.172c0-.57-.428-1.029-.96-1.029zm21.12 5.486h-.959v-4.457c0-.57-.428-1.029-.96-1.029h-1.92c-.532 0-.96.459-.96 1.029v11.657c0 .57.428 1.028.96 1.028h1.92c.532 0 .96-.459.96-1.028v-4.457h.959c.177 0 .32-.154.32-.343v-2.057c0-.189-.144-.343-.32-.343zM21.44 6.4h-1.92c-.532 0-.96.459-.96 1.029v7.2h-5.12v-7.2c0-.57-.428-1.029-.96-1.029h-1.92c-.532 0-.96.459-.96 1.029v17.143c0 .57.428 1.029.96 1.029h1.92c.532 0 .96-.459.96-1.029v-7.2h5.12v7.2c0 .57.428 1.029.96 1.029h1.92c.532 0 .96-.459.96-1.029V7.429c0-.57-.428-1.029-.96-1.029z"/></symbol><symbol id="icon-lines" viewBox="0 0 32 32"><path fill="none" stroke="#7e847f" stroke-linecap="round" stroke-linejoin="round" stroke-width="2" d="M28 18.333H4M28 13H4" style="stroke:var(--color3, #7e847f)"/></symbol><symbol id="icon-arrow-top" viewBox="0 0 32 32"><path fill="#f6f6f6" d="M16.881 7.414v17.504H15.02V7.414l-8.752 8.752-1.317-1.317 11-11 11 11-1.318 1.317-8.752-8.752z" style="fill:var(--color2, #f6f6f6)"/><path fill="none" stroke="#f6f6f6" stroke-width=".514" d="M16.881 24.918H15.02V7.414l-8.752 8.752-1.317-1.317 11-11 11 11-1.318 1.317-8.752-8.752v17.504z" style="stroke:var(--color2, #f6f6f6)"/></symbol><symbol id="icon-inverted-commas" viewBox="0 0 32 32"><path fill="#f6f6f6" d="M8.201 17.468c1.546-.612 2.785-.452 3.719.481s1.21 2.421.831 4.462c-.292 1.517-.933 2.683-1.925 3.5-.962.788-2.085 1.181-3.369 1.181-1.75 0-2.96-.671-3.631-2.013-.671-1.371-.802-3.208-.394-5.512.233-1.254.613-2.523 1.137-3.806s1.225-2.596 2.1-3.937c.875-1.342 2.013-2.508 3.413-3.5s2.946-1.633 4.638-1.925l-.438 4.637c-1.429.292-2.698 1.035-3.806 2.231-1.108 1.167-1.867 2.567-2.275 4.2zm13.169 0c1.546-.612 2.785-.452 3.719.481s1.21 2.421.831 4.462c-.292 1.517-.933 2.683-1.925 3.5-.963.788-2.085 1.181-3.369 1.181-1.75 0-2.96-.671-3.631-2.013-.671-1.371-.802-3.208-.394-5.512.233-1.254.613-2.523 1.138-3.806s1.225-2.596 2.1-3.937 2.012-2.508 3.412-3.5a11.225 11.225 0 0 1 4.638-1.925l-.438 4.637c-1.429.292-2.698 1.035-3.806 2.231-1.108 1.167-1.867 2.567-2.275 4.2z" style="fill:var(--color1, #f6f6f6)"/></symbol><symbol id="icon-man" viewBox="0 0 34 32"><path fill="#f6f6f6" d="M32 16c0 8.837-7.163 16-16 16S0 24.837 0 16 7.163 0 16 0s16 7.163 16 16z" opacity=".1" style="fill:var(--color1, #f6f6f6)"/><path fill="#f6f6f6" d="M24.729 11.907a.77.77 0 0 0-1.066-.093l-2.099 1.723-.965-2.337a.71.71 0 0 0-.146-.226 2.033 2.033 0 0 0-1.012-1.011 2.129 2.129 0 0 0-.628-.164c-.047-.024-.089-.055-.142-.071l-3.694-1.006a.773.773 0 0 0-.586.078.731.731 0 0 0-.46.42l-1.391 3.495a.738.738 0 0 0 .432.959.765.765 0 0 0 .98-.423l1.175-2.951 1.683.457c-.041.065-.085.126-.119.195l-2.157 4.568c-.031.067-.048.135-.07.205l-2.621 4.294-4.387 1.434a1.08 1.08 0 0 0-.235 1.531 1.139 1.139 0 0 0 1.566.231l4.489-1.511c.137-.098.237-.225.313-.363.056-.058.121-.105.164-.178l1.563-2.56 2.774 2.31-2.968 3.268a1.076 1.076 0 0 0 .095 1.543c.462.402 1.17.36 1.582-.093l3.704-4.078c.115-.126.184-.271.23-.422.028-.082.028-.168.034-.253 0-.043.017-.082.013-.122a1.062 1.062 0 0 0-.385-.796l-2.553-2.127c.184-.171.34-.375.453-.614l1.654-3.499.53 1.379a.683.683 0 0 0 .153.343.73.73 0 0 0 .29.198c.011.005.024.007.038.01a.72.72 0 0 0 .47.023l.003-.001c.023-.005.047-.001.07-.011a.752.752 0 0 0 .298-.212l3.013-2.498c.32-.263.185-.729-.084-1.042zM20.919 10.126c1.166 0 2.111-.924 2.111-2.063S22.085 6 20.919 6c-1.166 0-2.111.924-2.111 2.063s.945 2.063 2.111 2.063z" style="fill:var(--color1, #f6f6f6)"/></symbol><symbol id="icon-star-gray" viewBox="0 0 34 32"><path d="M15.24 1.561c0.504-1.552 2.699-1.552 3.204 0l2.558 7.872c0.225 0.694 0.872 1.164 1.602 1.164h8.277c1.632 0 2.31 2.088 0.99 3.047l-6.696 4.865c-0.59 0.429-0.837 1.189-0.612 1.883l2.558 7.872c0.504 1.552-1.272 2.842-2.592 1.883l-6.696-4.865c-0.59-0.429-1.39-0.429-1.98 0l-6.696 4.865c-1.32 0.959-3.096-0.331-2.592-1.883l2.558-7.872c0.225-0.694-0.022-1.454-0.612-1.883l-6.696-4.865c-1.32-0.959-0.642-3.047 0.99-3.047h8.277c0.73 0 1.376-0.47 1.602-1.164l2.558-7.872z"></path></symbol></defs></svg>
