<svg xmlns="http://www.w3.org/2000/svg" aria-hidden="true" style="position:absolute;width:0;height:0;overflow:hidden"><defs><symbol id="icon-cross" viewBox="0 0 32 32"><path stroke-linejoin="round" stroke-width="2.286" d="M22.666 9.333 9.333 22.666m0-13.333 13.333 13.333"/></symbol><symbol id="icon-trash" viewBox="0 0 32 32"><path stroke-linejoin="round" stroke-width="2.6" d="M10.667 8V6.933c0-1.493 0-2.24.29-2.811.256-.502.664-.91 1.166-1.165.57-.291 1.316-.291 2.811-.291h2.133c1.494 0 2.24 0 2.811.291.502.256.91.664 1.166 1.165.29.57.29 1.317.29 2.811V8m-8.001 7.333V22m5.334-6.667V22M4 8h24m-2.667 0v14.933c0 2.24 0 3.36-.436 4.216a3.996 3.996 0 0 1-1.748 1.748c-.855.436-1.976.436-4.216.436h-5.867c-2.24 0-3.36 0-4.216-.436a4.001 4.001 0 0 1-1.748-1.748c-.436-.856-.436-1.976-.436-4.216V8"/></symbol><symbol id="icon-star" viewBox="0 0 32 32"><path fill="#eea10c" d="m13.618 2.932-2.08 6.402a2.462 2.462 0 0 1-2.341 1.701H2.465c-2.384 0-3.376 3.051-1.447 4.453l5.446 3.957a2.462 2.462 0 0 1 .894 2.752l-2.081 6.402c-.737 2.268 1.859 4.154 3.788 2.752l5.445-3.957a2.461 2.461 0 0 1 2.894 0l5.445 3.957c1.93 1.401 4.525-.484 3.789-2.752l-2.081-6.402a2.463 2.463 0 0 1 .894-2.752l5.446-3.957c1.929-1.401.938-4.453-1.446-4.453h-6.732a2.463 2.463 0 0 1-2.341-1.701l-2.08-6.402c-.737-2.268-3.945-2.268-4.683 0z" style="fill:var(--color1, #eea10c)"/></symbol><symbol id="icon-search" viewBox="0 0 32 32"><path stroke-linejoin="round" stroke-width="2.667" d="M14.667 25.333C8.776 25.333 4 20.557 4 14.666S8.776 3.999 14.667 3.999s10.667 4.776 10.667 10.667-4.776 10.667-10.667 10.667z"/><path stroke-linecap="round" stroke-linejoin="round" stroke-width="2.667" d="m28 28-5.8-5.8"/></symbol><symbol id="icon-quotes" viewBox="0 0 32 32"><path fill="#f6f6f6" d="M8.201 17.468c1.546-.612 2.785-.452 3.719.481s1.21 2.421.831 4.462c-.292 1.517-.933 2.683-1.925 3.5-.962.788-2.085 1.181-3.369 1.181-1.75 0-2.96-.671-3.631-2.012-.671-1.371-.802-3.208-.394-5.513.233-1.254.612-2.523 1.137-3.806s1.225-2.596 2.1-3.937 2.013-2.508 3.413-3.5a11.225 11.225 0 0 1 4.638-1.925l-.437 4.637c-1.429.292-2.698 1.035-3.806 2.231-1.108 1.167-1.867 2.567-2.275 4.2zm13.169 0c1.546-.612 2.785-.452 3.719.481s1.21 2.421.831 4.462c-.292 1.517-.933 2.683-1.925 3.5-.962.788-2.085 1.181-3.369 1.181-1.75 0-2.96-.671-3.631-2.012-.671-1.371-.802-3.208-.394-5.513.233-1.254.613-2.523 1.138-3.806s1.225-2.596 2.1-3.937 2.012-2.508 3.412-3.5a11.225 11.225 0 0 1 4.638-1.925l-.438 4.637c-1.429.292-2.698 1.035-3.806 2.231-1.108 1.167-1.867 2.567-2.275 4.2z" style="fill:var(--color2, #f6f6f6)"/></symbol><symbol id="icon-dumbbells" viewBox="0 0 32 32"><path fill="#f6f6f6" d="M30.118 16c0 8.317-6.742 15.059-15.059 15.059S0 24.317 0 16 6.742.941 15.059.941 30.118 7.683 30.118 16z" opacity=".1" style="fill:var(--color2, #f6f6f6)"/><path fill="#f6f6f6" d="M9.976 11.966H8.847c-.313 0-.565.27-.565.605v2.622h-.565c-.104 0-.188.091-.188.202v1.21c0 .111.085.202.188.202h.565v2.622c0 .335.252.605.565.605h1.129c.313 0 .565-.27.565-.605v-6.857c0-.335-.252-.605-.565-.605zM22.4 15.193h-.565v-2.622c0-.335-.252-.605-.565-.605h-1.129c-.313 0-.565.27-.565.605v6.857c0 .335.252.605.565.605h1.129c.313 0 .565-.27.565-.605v-2.622h.565c.104 0 .188-.091.188-.202v-1.21c0-.111-.085-.202-.188-.202zm-4.141-4.84H17.13c-.313 0-.565.27-.565.605v4.235h-3.012v-4.235c0-.335-.252-.605-.565-.605h-1.129c-.313 0-.565.27-.565.605v10.084c0 .335.252.605.565.605h1.129c.313 0 .565-.27.565-.605v-4.235h3.012v4.235c0 .335.252.605.565.605h1.129c.313 0 .565-.27.565-.605V10.958c0-.335-.252-.605-.565-.605z" style="fill:var(--color2, #f6f6f6)"/></symbol><symbol id="icon-running_man" viewBox="0 0 32 32"><path fill="#f6f6f6" d="M30.118 16c0 8.317-6.742 15.059-15.059 15.059S0 24.317 0 16 6.742.941 15.059.941 30.118 7.683 30.118 16z" opacity=".1" style="fill:var(--color2, #f6f6f6)"/><path fill="#f6f6f6" d="M23.275 12.148a.727.727 0 0 0-1.004-.088l-1.976 1.622-.909-2.2a.658.658 0 0 0-.138-.213 1.912 1.912 0 0 0-.952-.951 1.97 1.97 0 0 0-.592-.154c-.044-.022-.083-.052-.133-.067l-3.477-.947a.734.734 0 0 0-.552.073.688.688 0 0 0-.433.396L11.8 12.908a.694.694 0 0 0 .407.902.72.72 0 0 0 .922-.399l1.106-2.778 1.584.43c-.039.061-.08.118-.112.183l-2.03 4.299c-.029.063-.045.127-.066.193l-2.467 4.042-4.129 1.35a1.018 1.018 0 0 0-.221 1.441 1.07 1.07 0 0 0 1.474.217l4.225-1.422c.129-.092.223-.212.294-.341.053-.055.114-.099.154-.167l1.471-2.41 2.611 2.174-2.794 3.076a1.013 1.013 0 0 0 .09 1.453 1.072 1.072 0 0 0 1.489-.088l3.486-3.838c.109-.118.173-.255.217-.398.026-.077.026-.158.032-.238 0-.041.016-.078.013-.115a.997.997 0 0 0-.362-.749l-2.403-2.002c.173-.161.32-.353.427-.578l1.557-3.293.499 1.298c.021.115.06.228.144.323a.686.686 0 0 0 .273.187c.01.005.023.006.035.009.065.022.13.044.198.047a.705.705 0 0 0 .244-.025l.003-.001c.022-.005.044-.001.066-.01a.708.708 0 0 0 .281-.2l2.835-2.352c.301-.248.174-.686-.079-.981zM21.676 8.53c0 1.072-.89 1.942-1.987 1.942s-1.987-.869-1.987-1.942.89-1.942 1.987-1.942c1.098 0 1.987.869 1.987 1.942z" style="fill:var(--color2, #f6f6f6)"/></symbol><symbol id="icon-arrow-right" viewBox="0 0 32 32"><path stroke-linejoin="round" stroke-width="2.908" d="M15.995 30.54 30.535 16 15.995 1.46M1.455 16h29.08"/></symbol><symbol id="icon-heart" viewBox="0 0 32 32"><path fill="none" stroke="#f6f6f6" stroke-linejoin="round" stroke-width="2.4" d="M25.408 4.556a7.33 7.33 0 0 0-7.994 1.591L16.001 7.56l-1.413-1.413a7.333 7.333 0 0 0-10.374 0 7.333 7.333 0 0 0 0 10.374l11.787 11.787 11.787-11.787a7.345 7.345 0 0 0 2.15-5.187 7.33 7.33 0 0 0-2.15-5.187 7.345 7.345 0 0 0-2.38-1.591z" style="stroke:var(--color2, #f6f6f6)"/></symbol><symbol id="icon-youtube" viewBox="0 0 32 32"><path fill="#7e847f" d="M21.244 9.636c-.865-.051-2.647-.102-5.345-.102h-.357c-2.596 0-4.327.051-5.192.153-1.171.102-1.986.407-2.444.815-.407.356-.712 1.018-.815 1.884-.05.56-.102 1.731-.102 3.513v.254c0 1.68.051 2.851.153 3.411.153.815.408 1.426.916 1.782.509.407 1.375.662 2.597.764.866.051 2.647.102 5.345.102h.357c2.597 0 4.327-.051 5.193-.153 1.17-.102 1.985-.407 2.443-.815.408-.356.713-1.018.815-1.884.051-.56.102-1.731.102-3.513v-.255c0-1.68-.05-2.851-.153-3.411-.153-.815-.407-1.425-.916-1.782-.509-.407-1.374-.662-2.597-.764zm-1.985 6.262-5.6 3.36v-6.72l5.6 3.36z" opacity=".8" style="fill:var(--color3, #7e847f)"/><path fill="none" stroke="#7e847f" stroke-width=".727" d="M4 .364h24A3.636 3.636 0 0 1 31.636 4v24A3.636 3.636 0 0 1 28 31.636H4A3.636 3.636 0 0 1 .364 28V4A3.636 3.636 0 0 1 4 .364z" style="stroke:var(--color3, #7e847f)"/></symbol><symbol id="icon-instagram" viewBox="0 0 32 32"><path fill="#7e847f" d="M24.093 12.663a5.895 5.895 0 0 0-.379-2.001 4.166 4.166 0 0 0-2.382-2.378 5.955 5.955 0 0 0-1.977-.379c-.87-.039-1.146-.05-3.355-.05s-2.493 0-3.357.05a5.99 5.99 0 0 0-1.977.379 4.163 4.163 0 0 0-2.382 2.378 5.916 5.916 0 0 0-.379 1.973c-.038.87-.05 1.145-.05 3.351s0 2.487.05 3.351c.014.676.141 1.342.379 1.975a4.166 4.166 0 0 0 2.383 2.377 5.94 5.94 0 0 0 1.977.406c.871.039 1.147.051 3.357.051s2.492 0 3.356-.051a6 6 0 0 0 1.978-.378 4.174 4.174 0 0 0 2.382-2.378 5.948 5.948 0 0 0 .379-1.975c.039-.869.051-1.144.051-3.351-.002-2.205-.002-2.485-.053-3.35zm-8.099 7.493c-2.31 0-4.183-1.869-4.183-4.175s1.872-4.175 4.183-4.175c2.308 0 4.182 1.869 4.182 4.175s-1.874 4.175-4.182 4.175zm4.348-7.531a.973.973 0 1 1 0-1.948.973.973 0 1 1 0 1.948z" opacity=".8" style="fill:var(--color3, #7e847f)"/><path fill="#7e847f" d="M18.543 15.982a2.548 2.548 0 1 1-5.097 0 2.548 2.548 0 0 1 5.097 0z" opacity=".8" style="fill:var(--color3, #7e847f)"/><path fill="none" stroke="#7e847f" stroke-width=".727" d="M4 .364h24A3.636 3.636 0 0 1 31.636 4v24A3.636 3.636 0 0 1 28 31.636H4A3.636 3.636 0 0 1 .364 28V4A3.636 3.636 0 0 1 4 .364z" style="stroke:var(--color3, #7e847f)"/></symbol><symbol id="icon-facebook" viewBox="0 0 32 32"><path fill="#7e847f" d="M18.24 8.771h.611v2.291h-.764c-.306 0-.611 0-.764.153-.153.153-.153.305-.153.662v.815h1.68v1.935h-1.68v8.4h-2.597v-8.451h-1.374v-1.935h1.374v-.662c0-1.12.153-1.935.458-2.291.459-.662 1.375-.967 2.749-.967.153.051.305.051.458.051z" opacity=".8" style="fill:var(--color3, #7e847f)"/><path fill="none" stroke="#7e847f" stroke-width=".727" d="M4 .364h24A3.636 3.636 0 0 1 31.636 4v24A3.636 3.636 0 0 1 28 31.636H4A3.636 3.636 0 0 1 .364 28V4A3.636 3.636 0 0 1 4 .364z" style="stroke:var(--color3, #7e847f)"/></symbol><symbol id="icon-dumbbells-dark" viewBox="0 0 32 32"><path d="M7.36 9.143H5.44c-.532 0-.96.459-.96 1.029v4.457h-.959c-.177 0-.32.154-.32.343v2.057c0 .188.144.343.32.343h.959v4.457c0 .57.428 1.028.96 1.028h1.92c.532 0 .96-.459.96-1.028V10.172c0-.57-.428-1.029-.96-1.029zm21.12 5.486h-.959v-4.457c0-.57-.428-1.029-.96-1.029h-1.92c-.532 0-.96.459-.96 1.029v11.657c0 .57.428 1.028.96 1.028h1.92c.532 0 .96-.459.96-1.028v-4.457h.959c.177 0 .32-.154.32-.343v-2.057c0-.189-.144-.343-.32-.343zM21.44 6.4h-1.92c-.532 0-.96.459-.96 1.029v7.2h-5.12v-7.2c0-.57-.428-1.029-.96-1.029h-1.92c-.532 0-.96.459-.96 1.029v17.143c0 .57.428 1.029.96 1.029h1.92c.532 0 .96-.459.96-1.029v-7.2h5.12v7.2c0 .57.428 1.029.96 1.029h1.92c.532 0 .96-.459.96-1.029V7.429c0-.57-.428-1.029-.96-1.029z"/></symbol><symbol id="icon-lines" viewBox="0 0 32 32"><path fill="none" stroke="#7e847f" stroke-linecap="round" stroke-linejoin="round" stroke-width="2" d="M28 18.333H4M28 13H4" style="stroke:var(--color3, #7e847f)"/></symbol><symbol id="icon-arrow-top" viewBox="0 0 32 32"><path fill="#f6f6f6" d="M16.881 7.414v17.504H15.02V7.414l-8.752 8.752-1.317-1.317 11-11 11 11-1.318 1.317-8.752-8.752z" style="fill:var(--color2, #f6f6f6)"/><path fill="none" stroke="#f6f6f6" stroke-width=".514" d="M16.881 24.918H15.02V7.414l-8.752 8.752-1.317-1.317 11-11 11 11-1.318 1.317-8.752-8.752v17.504z" style="stroke:var(--color2, #f6f6f6)"/></symbol></defs></svg>